<svg width="16" height="16" viewBox="0 0 16 16" fill="none" xmlns="http://www.w3.org/2000/svg">
<path d="M14.08 6.89149C14.9333 7.38416 14.9333 8.61584 14.08 9.10851L5.92 13.8197C5.06667 14.3124 4 13.6965 4 12.7112L4 3.28882C4 2.30348 5.06667 1.68764 5.92 2.18031L14.08 6.89149Z" fill="#1AA7EC"/>
<path d="M0.69888 6.7968H1.4592V10.56H0.69888V6.7968ZM1.0752 6.05184C0.98816 6.05184 0.90624 6.03136 0.82944 5.9904C0.75264 5.94432 0.6912 5.88288 0.64512 5.80608C0.59904 5.72928 0.576 5.6448 0.576 5.55264C0.576 5.46048 0.59904 5.376 0.64512 5.2992C0.6912 5.2224 0.75264 5.16096 0.82944 5.11488C0.90624 5.0688 0.98816 5.04576 1.0752 5.04576C1.16736 5.04576 1.24928 5.0688 1.32096 5.11488C1.39776 5.16096 1.45664 5.2224 1.4976 5.2992C1.54368 5.376 1.56672 5.46048 1.56672 5.55264C1.56672 5.6448 1.54368 5.72928 1.4976 5.80608C1.45664 5.88288 1.39776 5.94432 1.32096 5.9904C1.24928 6.03136 1.16736 6.05184 1.0752 6.05184ZM4.39506 12.3802C3.99058 12.3802 3.62706 12.2931 3.3045 12.119C2.98194 11.945 2.73362 11.6915 2.55954 11.3587L3.19698 11.0131C3.3045 11.2179 3.46066 11.3792 3.66546 11.497C3.87026 11.6198 4.10834 11.6813 4.3797 11.6813C4.64594 11.6813 4.87634 11.6198 5.0709 11.497C5.27058 11.3792 5.42674 11.2102 5.53938 10.9901C5.65202 10.775 5.70834 10.5216 5.70834 10.2298V9.43872L5.90034 9.26208C5.90034 9.48736 5.8389 9.70496 5.71602 9.91488C5.59826 10.1197 5.42418 10.2886 5.19378 10.4218C4.9685 10.5498 4.69458 10.6138 4.37202 10.6138C4.01874 10.6138 3.69618 10.5293 3.40434 10.3603C3.11762 10.1862 2.88722 9.95328 2.71314 9.66144C2.54418 9.36448 2.4597 9.03168 2.4597 8.66304C2.4597 8.30464 2.54674 7.97696 2.72082 7.68C2.90002 7.38304 3.14066 7.14752 3.44274 6.97344C3.74482 6.79424 4.0853 6.70464 4.46418 6.70464C4.84306 6.70464 5.18354 6.79168 5.48562 6.96576C5.7877 7.13472 6.02578 7.36768 6.19986 7.66464C6.37906 7.9616 6.46866 8.29696 6.46866 8.67072V10.2221C6.46866 10.6573 6.37906 11.0362 6.19986 11.3587C6.02066 11.6864 5.7749 11.9373 5.46258 12.1114C5.15026 12.2906 4.79442 12.3802 4.39506 12.3802ZM4.4565 9.89952C4.6869 9.89952 4.89682 9.84576 5.08626 9.73824C5.2757 9.6256 5.42418 9.47456 5.5317 9.28512C5.64434 9.09056 5.70066 8.88064 5.70066 8.65536C5.70066 8.42496 5.64434 8.2176 5.5317 8.03328C5.42418 7.84384 5.2757 7.69536 5.08626 7.58784C4.89682 7.48032 4.6869 7.42656 4.4565 7.42656C4.2261 7.42656 4.01618 7.48032 3.82674 7.58784C3.64242 7.69536 3.49394 7.84384 3.3813 8.03328C3.26866 8.2176 3.21234 8.42496 3.21234 8.65536C3.21234 8.88064 3.26866 9.09056 3.3813 9.28512C3.49394 9.47456 3.64242 9.6256 3.82674 9.73824C4.01618 9.84576 4.2261 9.89952 4.4565 9.89952ZM9.33186 10.6522C8.95298 10.6522 8.6125 10.5626 8.31042 10.3834C8.00834 10.2042 7.7677 9.96608 7.5885 9.66912C7.4093 9.36704 7.3197 9.03424 7.3197 8.67072C7.3197 8.3072 7.4093 7.97696 7.5885 7.68C7.7677 7.38304 8.00834 7.14752 8.31042 6.97344C8.6125 6.79424 8.95298 6.70464 9.33186 6.70464C9.71074 6.70464 10.0512 6.79424 10.3533 6.97344C10.6554 7.14752 10.8935 7.3856 11.0675 7.68768C11.2416 7.98464 11.3287 8.31232 11.3287 8.67072C11.3287 9.03424 11.2416 9.36704 11.0675 9.66912C10.8935 9.96608 10.6528 10.2042 10.3456 10.3834C10.0435 10.5626 9.70562 10.6522 9.33186 10.6522ZM9.33186 9.93024C9.56738 9.93024 9.7773 9.87392 9.96162 9.76128C10.1511 9.64864 10.2995 9.4976 10.4071 9.30816C10.5146 9.1136 10.5683 8.90368 10.5683 8.6784C10.5683 8.448 10.5146 8.23808 10.4071 8.04864C10.2995 7.8592 10.1511 7.70816 9.96162 7.59552C9.7773 7.47776 9.56738 7.41888 9.33186 7.41888C9.09634 7.41888 8.88386 7.47776 8.69442 7.59552C8.5101 7.70816 8.36162 7.8592 8.24898 8.04864C8.13634 8.23808 8.08002 8.448 8.08002 8.6784C8.08002 8.90368 8.13634 9.1136 8.24898 9.30816C8.36162 9.4976 8.5101 9.64864 8.69442 9.76128C8.88386 9.87392 9.09634 9.93024 9.33186 9.93024ZM12.9381 10.56H12.1778V8.31744C12.1778 8.01024 12.2341 7.73632 12.3467 7.49568C12.4645 7.25504 12.6335 7.0656 12.8536 6.92736C13.0789 6.78912 13.3554 6.72 13.6831 6.72C13.8059 6.72 13.9237 6.7328 14.0363 6.7584C14.1541 6.77888 14.2616 6.81216 14.3589 6.85824V7.61088C14.2667 7.55456 14.1669 7.5136 14.0594 7.488C13.957 7.4624 13.8546 7.4496 13.7522 7.4496C13.5013 7.4496 13.3016 7.53152 13.1531 7.69536C13.0098 7.85408 12.9381 8.07168 12.9381 8.34816V10.56Z" fill="white"/>
</svg>
