<svg width="25" height="19" viewBox="0 0 25 19" fill="none" xmlns="http://www.w3.org/2000/svg">
<path d="M24 7.76795C25.3333 8.53775 25.3333 10.4623 24 11.2321L11.25 18.5933C9.91667 19.3631 8.25 18.4008 8.25 16.8612L8.25 2.13878C8.25 0.599183 9.91667 -0.363067 11.25 0.406733L24 7.76795Z" fill="#fd148f"/>
<path d="M1.092 7.12H2.28V13H1.092V7.12ZM1.68 5.956C1.544 5.956 1.416 5.924 1.296 5.86C1.176 5.788 1.08 5.692 1.008 5.572C0.936 5.452 0.9 5.32 0.9 5.176C0.9 5.032 0.936 4.9 1.008 4.78C1.08 4.66 1.176 4.564 1.296 4.492C1.416 4.42 1.544 4.384 1.68 4.384C1.824 4.384 1.952 4.42 2.064 4.492C2.184 4.564 2.276 4.66 2.34 4.78C2.412 4.9 2.448 5.032 2.448 5.176C2.448 5.32 2.412 5.452 2.34 5.572C2.276 5.692 2.184 5.788 2.064 5.86C1.952 5.924 1.824 5.956 1.68 5.956ZM6.86728 15.844C6.23528 15.844 5.66728 15.708 5.16328 15.436C4.65928 15.164 4.27128 14.768 3.99928 14.248L4.99528 13.708C5.16328 14.028 5.40728 14.28 5.72728 14.464C6.04728 14.656 6.41928 14.752 6.84328 14.752C7.25928 14.752 7.61928 14.656 7.92328 14.464C8.23528 14.28 8.47928 14.016 8.65528 13.672C8.83128 13.336 8.91928 12.94 8.91928 12.484V11.248L9.21928 10.972C9.21928 11.324 9.12328 11.664 8.93128 11.992C8.74728 12.312 8.47528 12.576 8.11528 12.784C7.76328 12.984 7.33528 13.084 6.83128 13.084C6.27928 13.084 5.77528 12.952 5.31928 12.688C4.87128 12.416 4.51128 12.052 4.23928 11.596C3.97528 11.132 3.84328 10.612 3.84328 10.036C3.84328 9.476 3.97928 8.964 4.25128 8.5C4.53128 8.036 4.90728 7.668 5.37928 7.396C5.85128 7.116 6.38328 6.976 6.97528 6.976C7.56728 6.976 8.09928 7.112 8.57128 7.384C9.04328 7.648 9.41528 8.012 9.68728 8.476C9.96728 8.94 10.1073 9.464 10.1073 10.048V12.472C10.1073 13.152 9.96728 13.744 9.68728 14.248C9.40728 14.76 9.02328 15.152 8.53528 15.424C8.04728 15.704 7.49128 15.844 6.86728 15.844ZM6.96328 11.968C7.32328 11.968 7.65128 11.884 7.94728 11.716C8.24328 11.54 8.47528 11.304 8.64328 11.008C8.81928 10.704 8.90728 10.376 8.90728 10.024C8.90728 9.664 8.81928 9.34 8.64328 9.052C8.47528 8.756 8.24328 8.524 7.94728 8.356C7.65128 8.188 7.32328 8.104 6.96328 8.104C6.60328 8.104 6.27528 8.188 5.97928 8.356C5.69128 8.524 5.45928 8.756 5.28328 9.052C5.10728 9.34 5.01928 9.664 5.01928 10.024C5.01928 10.376 5.10728 10.704 5.28328 11.008C5.45928 11.304 5.69128 11.54 5.97928 11.716C6.27528 11.884 6.60328 11.968 6.96328 11.968ZM14.581 13.144C13.989 13.144 13.457 13.004 12.985 12.724C12.513 12.444 12.137 12.072 11.857 11.608C11.577 11.136 11.437 10.616 11.437 10.048C11.437 9.48 11.577 8.964 11.857 8.5C12.137 8.036 12.513 7.668 12.985 7.396C13.457 7.116 13.989 6.976 14.581 6.976C15.173 6.976 15.705 7.116 16.177 7.396C16.649 7.668 17.021 8.04 17.293 8.512C17.565 8.976 17.701 9.488 17.701 10.048C17.701 10.616 17.565 11.136 17.293 11.608C17.021 12.072 16.645 12.444 16.165 12.724C15.693 13.004 15.165 13.144 14.581 13.144ZM14.581 12.016C14.949 12.016 15.277 11.928 15.565 11.752C15.861 11.576 16.093 11.34 16.261 11.044C16.429 10.74 16.513 10.412 16.513 10.06C16.513 9.7 16.429 9.372 16.261 9.076C16.093 8.78 15.861 8.544 15.565 8.368C15.277 8.184 14.949 8.092 14.581 8.092C14.213 8.092 13.881 8.184 13.585 8.368C13.297 8.544 13.065 8.78 12.889 9.076C12.713 9.372 12.625 9.7 12.625 10.06C12.625 10.412 12.713 10.74 12.889 11.044C13.065 11.34 13.297 11.576 13.585 11.752C13.881 11.928 14.213 12.016 14.581 12.016ZM20.2158 13H19.0278V9.496C19.0278 9.016 19.1158 8.588 19.2918 8.212C19.4758 7.836 19.7398 7.54 20.0838 7.324C20.4358 7.108 20.8678 7 21.3798 7C21.5718 7 21.7558 7.02 21.9318 7.06C22.1158 7.092 22.2838 7.144 22.4358 7.216V8.392C22.2918 8.304 22.1358 8.24 21.9678 8.2C21.8078 8.16 21.6478 8.14 21.4878 8.14C21.0958 8.14 20.7838 8.268 20.5518 8.524C20.3278 8.772 20.2158 9.112 20.2158 9.544V13Z" fill="white"/>
</svg>