<svg width="156" height="156" viewBox="0 0 156 156" fill="none" xmlns="http://www.w3.org/2000/svg">
<path d="M144.3 78C150.762 78 156.09 83.2672 155.124 89.6564C153.418 100.942 149.249 111.765 142.855 121.335C134.284 134.162 122.102 144.159 107.849 150.063C93.5966 155.966 77.9134 157.511 62.7829 154.501C47.6523 151.492 33.7541 144.063 22.8456 133.154C11.9371 122.246 4.50833 108.347 1.49872 93.2169C-1.5109 78.0863 0.033796 62.4031 5.93747 48.1505C11.8411 33.8979 21.8386 21.716 34.6657 13.1452C44.2349 6.75137 55.0582 2.58149 66.3439 0.875793C72.733 -0.0898543 78.0002 5.23827 78.0002 11.7V11.7C78.0002 18.1617 72.7032 23.2746 66.3893 24.6488C59.7385 26.0962 53.3825 28.782 47.666 32.6017C38.6871 38.6012 31.6888 47.1285 27.5562 57.1054C23.4237 67.0822 22.3424 78.0604 24.4491 88.6518C26.5558 99.2432 31.756 108.972 39.3919 116.608C47.0278 124.244 56.7566 129.444 67.348 131.551C77.9394 133.658 88.9176 132.576 98.8945 128.444C108.871 124.311 117.399 117.313 123.398 108.334C127.218 102.618 129.904 96.2617 131.351 89.6109C132.725 83.2969 137.838 78 144.3 78V78Z" fill="#353334"/>
</svg>
